<svg width="37" height="35" viewBox="0 0 37 35" fill="none" xmlns="http://www.w3.org/2000/svg">
<path d="M22.7165 12.2715C24.194 12.0693 25.705 12.1371 27.2477 12.4756C28.7905 12.814 30.2737 13.4963 31.697 14.5215C33.1202 15.5467 34.3075 17.1795 35.2595 19.4189C35.7651 20.6085 36.0568 21.874 36.1335 23.2158C36.2102 24.5578 35.9913 25.8837 35.4782 27.1933C34.9651 28.5029 34.1486 29.6787 33.028 30.7207C31.9372 31.8326 30.4622 32.7182 28.6032 33.3779C26.6727 34.0629 24.8793 34.2967 23.2233 34.0791C21.5971 33.9313 20.1822 33.5072 18.9792 32.8066C17.7344 32.2013 16.6955 31.402 15.862 30.4092C14.9868 29.5117 14.3703 28.6434 14.0134 27.8037C13.7754 27.244 13.5876 26.7065 13.4509 26.1914C13.2724 25.7716 13.1716 25.2432 13.1481 24.6074C15.4984 24.4116 15.7486 24.6014 17.3766 24.4658C18.9995 24.3306 22.1654 24.0352 22.1872 24.0332C22.1783 24.0179 20.2558 20.7047 19.6657 19.3164L16.988 14.1836C17.5004 13.8407 18.1858 13.5173 19.0436 13.2129C20.0446 12.8577 21.2689 12.5436 22.7165 12.2715ZM7.21844 0.264622C8.86837 -0.0874649 10.3606 -0.0882958 11.694 0.262669C13.0102 0.553808 14.1252 1.04734 15.0388 1.74216C15.9962 2.36413 16.7659 3.12173 17.3473 4.01462C17.9725 4.83451 18.3885 5.60373 18.5954 6.32224C18.7333 6.80129 18.8327 7.25721 18.8923 7.68943C18.9956 8.04867 19.0246 8.48778 18.9792 9.00583C17.9167 8.46985 16.835 8.31895 15.735 8.55368C14.8186 8.7493 14.1405 9.21138 13.7018 9.9404C13.2459 10.6097 13.182 11.5137 13.5095 12.6513L14.7761 17.0527C14.3217 17.2767 13.728 17.4675 12.9948 17.624C12.1393 17.8065 11.105 17.9318 9.89227 18C8.6622 18.0082 7.43232 17.7934 6.20379 17.3564C4.97551 16.9194 3.8309 16.2105 2.7702 15.2295C1.70931 14.2482 0.902929 12.799 0.351252 10.8828C0.0582347 9.86491 -0.0514103 8.80799 0.0221509 7.71189C0.0957372 6.61574 0.408603 5.56344 0.961604 4.55564C1.5147 3.54777 2.30365 2.67993 3.32684 1.9531C4.33268 1.1666 5.62989 0.603659 7.21844 0.264622Z" fill="white"/>
</svg>
